#!OML:ASF H:\Dans Jumps\Project 1\Capture day 1\Session 1\subject.ASF
:FULLY-SPECIFIED
:DEGREES
86
root 0.531426 17.5098 -13.6869 5.39355 -0.9991 -1.60137
lowerback -2.35942 -0.475161 0.0849286
upperback 3.11511 -0.710004 1.7302
thorax 4.55784 -0.382499 1.695
lowerneck -14.1213 0.699801 -1.47615
upperneck 31.2753 1.46197 -0.112656
head 12.7357 0.451222 0.429917
rclavicle -8.29926e-015 7.95139e-016
rhumerus -26.1205 -22.7139 -76.9083
rradius 23.134
rwrist 34.8306
rhand -20.276 -27.4811
rfingers 7.12502
rthumb 6.07336 -57.374
lclavicle -8.29926e-015 7.95139e-016
lhumerus -21.8175 3.05404 87.3021
lradius 17.2848
lwrist 0.737582
lhand -25.2931 -4.27063
lfingers 7.12502
lthumb 1.2285 25.7056
rfemur -12.6319 -1.7927 19.5456
rtibia 23.105
rfoot -14.7197 -2.29216
rtoes 8.68347
lfemur -11.1341 7.77203 -18.1804
ltibia 20.8395
lfoot -13.0454 4.55663
ltoes 1.7385
87
root 0.533541 17.509 -13.6893 5.37713 -1.01211 -1.59037
lowerback -2.34209 -0.476595 0.0798267
upperback 3.12159 -0.711497 1.72753
thorax 4.5548 -0.383387 1.69511
lowerneck -14.1523 0.704138 -1.48591
upperneck 31.3357 1.4727 -0.113326
head 12.7673 0.453926 0.433446
rclavicle 1.42628e-014 -2.32578e-014
rhumerus -26.0686 -22.6132 -76.9698
rradius 23.16
rwrist 34.7737
rhand -20.2422 -27.5197
rfingers 7.12502
rthumb 6.10603 -57.4117
lclavicle 1.42628e-014 -2.32578e-014
lhumerus -21.8064 3.03208 87.3144
lradius 17.269
lwrist 0.702222
lhand -25.2914 -4.29828
lfingers 7.12502
lthumb 1.2301 25.6779
rfemur -12.645 -1.76582 19.5248
rtibia 23.1501
rfoot -14.732 -2.31021
rtoes 8.66298
lfemur -11.1305 7.76542 -18.2003
ltibia 20.8541
lfoot -13.0482 4.57379
ltoes 1.76053
88
root 0.535608 17.5081 -13.6919 5.36323 -1.02506 -1.57991
lowerback -2.32497 -0.478228 0.0747441
upperback 3.12727 -0.713286 1.72577
thorax 4.55107 -0.384433 1.69614
lowerneck -14.1849 0.708793 -1.49681
upperneck 31.3979 1.48431 -0.114045
head 12.7999 0.456842 0.437316
rclavicle -8.44835e-016 -6.95746e-015
rhumerus -26.0131 -22.5073 -77.0312
rradius 23.1831
rwrist 34.7158
rhand -20.1969 -27.5647
rfingers 7.12502
rthumb 6.14969 -57.4555
lclavicle -8.44835e-016 -6.95746e-015
lhumerus -21.7924 3.03269 87.3221
lradius 17.2504
lwrist 0.650965
lhand -25.2888 -4.35758
lfingers 7.12502
lthumb 1.23263 25.6186
rfemur -12.6628 -1.73624 19.5045
rtibia 23.1974
rfoot -14.7435 -2.32742
rtoes 8.66197
lfemur -11.1338 7.7586 -18.2197
ltibia 20.8739
lfoot -13.0512 4.59163
ltoes 1.7739
89
root 0.537492 17.5072 -13.6947 5.35025 -1.03629 -1.56737
lowerback -2.30821 -0.480722 0.0655683
upperback 3.1335 -0.716073 1.72442
thorax 4.54821 -0.386128 1.69982
lowerneck -14.2167 0.714416 -1.5082
upperneck 31.4584 1.49716 -0.113834
head 12.8318 0.460371 0.441807
rclavicle 2.08724e-015 1.09332e-014
rhumerus -25.9517 -22.4038 -77.0911
rradius 23.1999
rwrist 34.6648
rhand -20.1652 -27.5903
rfingers 7.12502
rthumb 6.18032 -57.4801
lclavicle 2.08724e-015 1.09332e-014
lhumerus -21.7718 3.04831 87.3269
lradius 17.2245
lwrist 0.591419
lhand -25.2752 -4.40335
lfingers 7.12502
lthumb 1.24576 25.5728
rfemur -12.6847 -1.70409 19.4828
rtibia 23.249
rfoot -14.7545 -2.34988
rtoes 8.65893
lfemur -11.1397 7.75614 -18.2408
ltibia 20.8932
lfoot -13.0536 4.60408
ltoes 1.7764
